<mxfile host="app.diagrams.net" modified="2024-01-25T13:17:18.394Z" agent="Mozilla/5.0 (Windows NT 10.0; Win64; x64) AppleWebKit/537.36 (KHTML, like Gecko) Chrome/120.0.0.0 Safari/537.36" version="23.0.1" etag="8lHy36OwIP2bByuIwsbH" type="github">
  <diagram name="第 1 页" id="hC4MnB6brRXsY24hX96M">
    <mxGraphModel>
      <root>
        <mxCell id="0" />
        <mxCell id="1" parent="0" />
      </root>
    </mxGraphModel>
  </diagram>
</mxfile>
